<?xml version="1.0" encoding="UTF-8"?>
<svg width="200" height="200" viewBox="0 0 200 200" fill="none" xmlns="http://www.w3.org/2000/svg">
    <!-- 背景圆 -->
    <circle cx="100" cy="100" r="100" fill="#FFD700"/>
    <!-- 皇冠 -->
    <path d="M50 80C50 80 65 120 100 120C135 120 150 80 150 80L160 130H40L50 80Z" fill="#F0C744"/>
    <path d="M40 75C45.5228 75 50 70.5228 50 65C50 59.4772 45.5228 55 40 55C34.4772 55 30 59.4772 30 65C30 70.5228 34.4772 75 40 75Z" fill="#F0C744"/>
    <path d="M100 65C105.523 65 110 60.5228 110 55C110 49.4772 105.523 45 100 45C94.4772 45 90 49.4772 90 55C90 60.5228 94.4772 65 100 65Z" fill="#F0C744"/>
    <path d="M160 75C165.523 75 170 70.5228 170 65C170 59.4772 165.523 55 160 55C154.477 55 150 59.4772 150 65C150 70.5228 154.477 75 160 75Z" fill="#F0C744"/>
    <!-- 脸部 -->
    <circle cx="100" cy="110" r="40" fill="#FFE4B5"/>
    <!-- 眼睛 -->
    <circle cx="85" cy="100" r="5" fill="#4A4A4A"/>
    <circle cx="115" cy="100" r="5" fill="#4A4A4A"/>
    <!-- 嘴巴 -->
    <path d="M90 120C90 120 95 125 100 125C105 125 110 120 110 120" stroke="#4A4A4A" stroke-width="3" stroke-linecap="round"/>
</svg>
