<?xml version="1.0" encoding="UTF-8"?>
<svg width="200" height="200" viewBox="0 0 200 200" fill="none" xmlns="http://www.w3.org/2000/svg">
    <!-- 背景圆 -->
    <circle cx="100" cy="100" r="100" fill="#E8E8E8"/>
    <!-- 银币 -->
    <circle cx="100" cy="100" r="50" fill="#C0C0C0"/>
    <circle cx="100" cy="100" r="40" fill="#B4B4B4"/>
    <!-- S符号 -->
    <path d="M110 85C110 80 105 75 100 75C95 75 90 80 90 85C90 90 95 92 100 94C105 96 110 98 110 103C110 108 105 113 100 113C95 113 90 108 90 103" stroke="white" stroke-width="8" stroke-linecap="round"/>
    <!-- 闪光效果 -->
    <circle cx="80" cy="80" r="5" fill="white"/>
    <circle cx="120" cy="90" r="3" fill="white"/>
    <!-- 眼睛 -->
    <circle cx="85" cy="100" r="5" fill="#4A4A4A"/>
    <circle cx="115" cy="100" r="5" fill="#4A4A4A"/>
    <!-- 嘴巴 -->
    <path d="M90 120C90 120 95 125 100 125C105 125 110 120 110 120" stroke="#4A4A4A" stroke-width="3" stroke-linecap="round"/>
</svg>
